<?xml version="1.0" encoding="UTF-8" standalone="no"?>
<!DOCTYPE svg PUBLIC "-//W3C//DTD SVG 1.1//EN"
 "http://www.w3.org/Graphics/SVG/1.1/DTD/svg11.dtd">
<!-- Generated by graphviz version 2.40.1 (20161225.0304)
 -->
<!-- Title: Mir_0_3 Pages: 1 -->
<svg width="1214pt" height="1385pt"
 viewBox="0.00 0.00 1214.00 1385.00" xmlns="http://www.w3.org/2000/svg" xmlns:xlink="http://www.w3.org/1999/xlink">
<g id="graph0" class="graph" transform="scale(1 1) rotate(0) translate(4 1381)">
<title>Mir_0_3</title>
<polygon fill="#ffffff" stroke="transparent" points="-4,4 -4,-1381 1210,-1381 1210,4 -4,4"/>
<text text-anchor="start" x="396.5" y="-187.8" font-family="monospace" font-size="14.00" fill="#000000">fn main() &#45;&gt; ()</text>
<text text-anchor="start" x="396.5" y="-172.8" font-family="monospace" font-size="14.00" fill="#000000">let _1: std::boxed::Box&lt;std::string::String&gt;;</text>
<text text-anchor="start" x="396.5" y="-157.8" font-family="monospace" font-size="14.00" fill="#000000">let mut _2: std::boxed::Box&lt;std::string::String&gt;;</text>
<text text-anchor="start" x="396.5" y="-142.8" font-family="monospace" font-size="14.00" fill="#000000">let mut _3: std::string::String;</text>
<text text-anchor="start" x="396.5" y="-127.8" font-family="monospace" font-size="14.00" fill="#000000">let mut _4: &amp;str;</text>
<text text-anchor="start" x="396.5" y="-112.8" font-family="monospace" font-size="14.00" fill="#000000">let _5: &amp;str;</text>
<text text-anchor="start" x="396.5" y="-97.8" font-family="monospace" font-size="14.00" fill="#000000">let _6: std::string::String;</text>
<text text-anchor="start" x="396.5" y="-82.8" font-family="monospace" font-size="14.00" fill="#000000">let mut _7: std::boxed::Box&lt;std::string::String&gt;;</text>
<text text-anchor="start" x="396.5" y="-67.8" font-family="monospace" font-size="14.00" fill="#000000">let mut _8: &amp;std::boxed::Box&lt;std::string::String&gt;;</text>
<text text-anchor="start" x="396.5" y="-52.8" font-family="monospace" font-size="14.00" fill="#000000">let mut _9: bool;</text>
<text text-anchor="start" x="396.5" y="-37.8" font-family="monospace" font-size="14.00" fill="#000000">let mut _10: ();</text>
<text text-anchor="start" x="396.5" y="-22.8" font-family="monospace" font-size="14.00" fill="#000000">debug foo1 =&gt; _1;</text>
<text text-anchor="start" x="396.5" y="-7.8" font-family="monospace" font-size="14.00" fill="#000000">debug _foo2 =&gt; _6;</text>
<!-- bb0__0_3 -->
<g id="node1" class="node">
<title>bb0__0_3</title>
<polygon fill="#c0c0c0" stroke="transparent" points="688,-1352 688,-1373 1198,-1373 1198,-1352 688,-1352"/>
<polygon fill="none" stroke="#000000" points="688,-1352 688,-1373 1198,-1373 1198,-1352 688,-1352"/>
<text text-anchor="start" x="938.5" y="-1358.8" font-family="monospace" font-size="14.00" fill="#000000">0</text>
<polygon fill="none" stroke="#000000" points="688,-1226 688,-1352 1198,-1352 1198,-1226 688,-1226"/>
<text text-anchor="start" x="691" y="-1337.8" font-family="monospace" font-size="14.00" fill="#000000">_9 = const false</text>
<text text-anchor="start" x="691" y="-1322.8" font-family="monospace" font-size="14.00" fill="#000000">StorageLive(_1)</text>
<text text-anchor="start" x="691" y="-1307.8" font-family="monospace" font-size="14.00" fill="#000000">StorageLive(_2)</text>
<text text-anchor="start" x="691" y="-1292.8" font-family="monospace" font-size="14.00" fill="#000000">StorageLive(_3)</text>
<text text-anchor="start" x="691" y="-1277.8" font-family="monospace" font-size="14.00" fill="#000000">StorageLive(_4)</text>
<text text-anchor="start" x="691" y="-1262.8" font-family="monospace" font-size="14.00" fill="#000000">StorageLive(_5)</text>
<text text-anchor="start" x="691" y="-1247.8" font-family="monospace" font-size="14.00" fill="#000000">_5 = const &quot;bar1&quot;</text>
<text text-anchor="start" x="691" y="-1232.8" font-family="monospace" font-size="14.00" fill="#000000">_4 = _5</text>
<polygon fill="none" stroke="#000000" points="688,-1205 688,-1226 1198,-1226 1198,-1205 688,-1205"/>
<text text-anchor="start" x="691" y="-1211.8" font-family="monospace" font-size="14.00" fill="#000000">_3 = const &lt;str as std::string::ToString&gt;::to_string(move _4)</text>
</g>
<!-- bb2__0_3 -->
<g id="node3" class="node">
<title>bb2__0_3</title>
<polygon fill="#c0c0c0" stroke="transparent" points="531,-1124.5 531,-1145.5 1057,-1145.5 1057,-1124.5 531,-1124.5"/>
<polygon fill="none" stroke="#000000" points="531,-1124.5 531,-1145.5 1057,-1145.5 1057,-1124.5 531,-1124.5"/>
<text text-anchor="start" x="789.5" y="-1131.3" font-family="monospace" font-size="14.00" fill="#000000">2</text>
<polygon fill="none" stroke="#000000" points="531,-1103.5 531,-1124.5 1057,-1124.5 1057,-1103.5 531,-1103.5"/>
<text text-anchor="start" x="534" y="-1110.3" font-family="monospace" font-size="14.00" fill="#000000">StorageDead(_4)</text>
<polygon fill="none" stroke="#000000" points="531,-1082.5 531,-1103.5 1057,-1103.5 1057,-1082.5 531,-1082.5"/>
<text text-anchor="start" x="534" y="-1089.3" font-family="monospace" font-size="14.00" fill="#000000">_2 = const std::boxed::Box::&lt;std::string::String&gt;::new(move _3)</text>
</g>
<!-- bb0__0_3&#45;&gt;bb2__0_3 -->
<g id="edge1" class="edge">
<title>bb0__0_3&#45;&gt;bb2__0_3</title>
<path fill="none" stroke="#000000" d="M867.8452,-1200.9832C855.1476,-1186.1125 842.4754,-1171.2716 831.3041,-1158.1884"/>
<polygon fill="#000000" stroke="#000000" points="833.7108,-1155.617 824.5556,-1150.2849 828.3874,-1160.1625 833.7108,-1155.617"/>
<text text-anchor="middle" x="876" y="-1171.8" font-family="monospace" font-size="14.00" fill="#000000">return</text>
</g>
<!-- bb9__0_3 -->
<g id="node10" class="node">
<title>bb9__0_3</title>
<polygon fill="#c0c0c0" stroke="transparent" points="928,-484 928,-505 1042,-505 1042,-484 928,-484"/>
<polygon fill="none" stroke="#000000" points="928,-484 928,-505 1042,-505 1042,-484 928,-484"/>
<text text-anchor="start" x="980.5" y="-490.8" font-family="monospace" font-size="14.00" fill="#000000">9</text>
<polygon fill="none" stroke="#000000" points="928,-463 928,-484 1042,-484 1042,-463 928,-463"/>
<text text-anchor="start" x="931" y="-469.8" font-family="monospace" font-size="14.00" fill="#000000">switchInt(_9)</text>
</g>
<!-- bb0__0_3&#45;&gt;bb9__0_3 -->
<g id="edge2" class="edge">
<title>bb0__0_3&#45;&gt;bb9__0_3</title>
<path fill="none" stroke="#000000" d="M1057.8317,-1200.7547C1078.1679,-1175.8482 1093,-1146.6594 1093,-1114.5 1093,-1114.5 1093,-1114.5 1093,-613.5 1093,-573.0935 1061.6058,-538.6137 1032.67,-515.4154"/>
<polygon fill="#000000" stroke="#000000" points="1034.6536,-512.5249 1024.602,-509.1759 1030.3712,-518.0622 1034.6536,-512.5249"/>
<text text-anchor="middle" x="1118" y="-807.8" font-family="monospace" font-size="14.00" fill="#000000">unwind</text>
</g>
<!-- bb1__0_3 -->
<g id="node2" class="node">
<title>bb1__0_3</title>
<polygon fill="#c0c0c0" stroke="transparent" points="918,-228 918,-249 974,-249 974,-228 918,-228"/>
<polygon fill="none" stroke="#000000" points="918,-228 918,-249 974,-249 974,-228 918,-228"/>
<text text-anchor="start" x="941.5" y="-234.8" font-family="monospace" font-size="14.00" fill="#000000">1</text>
<polygon fill="none" stroke="#000000" points="918,-207 918,-228 974,-228 974,-207 918,-207"/>
<text text-anchor="start" x="921" y="-213.8" font-family="monospace" font-size="14.00" fill="#000000">resume</text>
</g>
<!-- bb3__0_3 -->
<g id="node4" class="node">
<title>bb3__0_3</title>
<polygon fill="#c0c0c0" stroke="transparent" points="263,-1002.5 263,-1023.5 979,-1023.5 979,-1002.5 263,-1002.5"/>
<polygon fill="none" stroke="#000000" points="263,-1002.5 263,-1023.5 979,-1023.5 979,-1002.5 263,-1002.5"/>
<text text-anchor="start" x="616.5" y="-1009.3" font-family="monospace" font-size="14.00" fill="#000000">3</text>
<polygon fill="none" stroke="#000000" points="263,-861.5 263,-1002.5 979,-1002.5 979,-861.5 263,-861.5"/>
<text text-anchor="start" x="266" y="-988.3" font-family="monospace" font-size="14.00" fill="#000000">StorageDead(_3)</text>
<text text-anchor="start" x="266" y="-973.3" font-family="monospace" font-size="14.00" fill="#000000">_9 = const true</text>
<text text-anchor="start" x="266" y="-958.3" font-family="monospace" font-size="14.00" fill="#000000">_1 = move _2</text>
<text text-anchor="start" x="266" y="-943.3" font-family="monospace" font-size="14.00" fill="#000000">StorageDead(_2)</text>
<text text-anchor="start" x="266" y="-928.3" font-family="monospace" font-size="14.00" fill="#000000">StorageDead(_5)</text>
<text text-anchor="start" x="266" y="-913.3" font-family="monospace" font-size="14.00" fill="#000000">StorageLive(_6)</text>
<text text-anchor="start" x="266" y="-898.3" font-family="monospace" font-size="14.00" fill="#000000">StorageLive(_7)</text>
<text text-anchor="start" x="266" y="-883.3" font-family="monospace" font-size="14.00" fill="#000000">StorageLive(_8)</text>
<text text-anchor="start" x="266" y="-868.3" font-family="monospace" font-size="14.00" fill="#000000">_8 = &amp;_1</text>
<polygon fill="none" stroke="#000000" points="263,-840.5 263,-861.5 979,-861.5 979,-840.5 263,-840.5"/>
<text text-anchor="start" x="266" y="-847.3" font-family="monospace" font-size="14.00" fill="#000000">_7 = const &lt;std::boxed::Box&lt;std::string::String&gt; as std::clone::Clone&gt;::clone(move _8)</text>
</g>
<!-- bb2__0_3&#45;&gt;bb3__0_3 -->
<g id="edge3" class="edge">
<title>bb2__0_3&#45;&gt;bb3__0_3</title>
<path fill="none" stroke="#000000" d="M760.2332,-1078.9765C748.149,-1066.2637 733.8446,-1051.2151 719.0818,-1035.6843"/>
<polygon fill="#000000" stroke="#000000" points="721.232,-1032.8662 711.8055,-1028.0295 716.1583,-1037.6889 721.232,-1032.8662"/>
<text text-anchor="middle" x="768" y="-1049.8" font-family="monospace" font-size="14.00" fill="#000000">return</text>
</g>
<!-- bb2__0_3&#45;&gt;bb9__0_3 -->
<g id="edge4" class="edge">
<title>bb2__0_3&#45;&gt;bb9__0_3</title>
<path fill="none" stroke="#000000" d="M927.9027,-1078.8795C953.6762,-1066.5184 978.1603,-1050.0024 996,-1028 1023.2554,-994.3848 1015,-975.7763 1015,-932.5 1015,-932.5 1015,-932.5 1015,-613.5 1015,-580.9023 1005.8669,-544.8521 997.6792,-519.0832"/>
<polygon fill="#000000" stroke="#000000" points="1000.9423,-517.8021 994.4922,-509.3969 994.293,-519.9899 1000.9423,-517.8021"/>
<text text-anchor="middle" x="1040" y="-739.3" font-family="monospace" font-size="14.00" fill="#000000">unwind</text>
</g>
<!-- bb4__0_3 -->
<g id="node5" class="node">
<title>bb4__0_3</title>
<polygon fill="#c0c0c0" stroke="transparent" points="8,-761 8,-782 914,-782 914,-761 8,-761"/>
<polygon fill="none" stroke="#000000" points="8,-761 8,-782 914,-782 914,-761 8,-761"/>
<text text-anchor="start" x="456.5" y="-767.8" font-family="monospace" font-size="14.00" fill="#000000">4</text>
<polygon fill="none" stroke="#000000" points="8,-725 8,-761 914,-761 914,-725 8,-725"/>
<text text-anchor="start" x="11" y="-746.8" font-family="monospace" font-size="14.00" fill="#000000">StorageDead(_8)</text>
<text text-anchor="start" x="11" y="-731.8" font-family="monospace" font-size="14.00" fill="#000000">_6 = move (*_7)</text>
<polygon fill="none" stroke="#000000" points="8,-704 8,-725 914,-725 914,-704 8,-704"/>
<text text-anchor="start" x="11" y="-710.8" font-family="monospace" font-size="14.00" fill="#000000">_10 = const alloc::alloc::box_free::&lt;std::string::String&gt;(move (_7.0: std::ptr::Unique&lt;std::string::String&gt;))</text>
</g>
<!-- bb3__0_3&#45;&gt;bb4__0_3 -->
<g id="edge5" class="edge">
<title>bb3__0_3&#45;&gt;bb4__0_3</title>
<path fill="none" stroke="#000000" d="M540.2969,-836.9172C527.7019,-822 515.1301,-807.1103 503.8305,-793.7273"/>
<polygon fill="#000000" stroke="#000000" points="506.4594,-791.4157 497.3338,-786.0329 501.1109,-795.9316 506.4594,-791.4157"/>
<text text-anchor="middle" x="547" y="-807.8" font-family="monospace" font-size="14.00" fill="#000000">return</text>
</g>
<!-- bb3__0_3&#45;&gt;bb9__0_3 -->
<g id="edge6" class="edge">
<title>bb3__0_3&#45;&gt;bb9__0_3</title>
<path fill="none" stroke="#000000" d="M878.886,-836.9759C898.5262,-822.237 916.3602,-805.3412 931,-786 963.3676,-743.238 941.657,-719.8106 951,-667 960.0947,-615.5933 971.251,-556.19 978.2449,-519.3553"/>
<polygon fill="#000000" stroke="#000000" points="981.7584,-519.6141 980.1885,-509.1363 974.8816,-518.3062 981.7584,-519.6141"/>
<text text-anchor="middle" x="976" y="-670.8" font-family="monospace" font-size="14.00" fill="#000000">unwind</text>
</g>
<!-- bb5__0_3 -->
<g id="node6" class="node">
<title>bb5__0_3</title>
<polygon fill="#c0c0c0" stroke="transparent" points="730,-623.5 730,-644.5 860,-644.5 860,-623.5 730,-623.5"/>
<polygon fill="none" stroke="#000000" points="730,-623.5 730,-644.5 860,-644.5 860,-623.5 730,-623.5"/>
<text text-anchor="start" x="790.5" y="-630.3" font-family="monospace" font-size="14.00" fill="#000000">5</text>
<polygon fill="none" stroke="#000000" points="730,-602.5 730,-623.5 860,-623.5 860,-602.5 730,-602.5"/>
<text text-anchor="start" x="733" y="-609.3" font-family="monospace" font-size="14.00" fill="#000000">StorageDead(_7)</text>
<polygon fill="none" stroke="#000000" points="730,-581.5 730,-602.5 860,-602.5 860,-581.5 730,-581.5"/>
<text text-anchor="start" x="733" y="-588.3" font-family="monospace" font-size="14.00" fill="#000000">drop(_6)</text>
</g>
<!-- bb4__0_3&#45;&gt;bb5__0_3 -->
<g id="edge7" class="edge">
<title>bb4__0_3&#45;&gt;bb5__0_3</title>
<path fill="none" stroke="#000000" d="M572.2172,-699.8784C617.9992,-682.1275 670.1005,-661.9266 712.4009,-645.5257"/>
<polygon fill="#000000" stroke="#000000" points="713.7648,-648.7508 721.8233,-641.8724 711.2343,-642.2242 713.7648,-648.7508"/>
<text text-anchor="middle" x="673" y="-670.8" font-family="monospace" font-size="14.00" fill="#000000">return</text>
</g>
<!-- bb6__0_3 -->
<g id="node7" class="node">
<title>bb6__0_3</title>
<polygon fill="#c0c0c0" stroke="transparent" points="726,-502 726,-523 865,-523 865,-502 726,-502"/>
<polygon fill="none" stroke="#000000" points="726,-502 726,-523 865,-523 865,-502 726,-502"/>
<text text-anchor="start" x="791" y="-508.8" font-family="monospace" font-size="14.00" fill="#000000">6</text>
<polygon fill="none" stroke="#000000" points="726,-466 726,-502 865,-502 865,-466 726,-466"/>
<text text-anchor="start" x="729" y="-487.8" font-family="monospace" font-size="14.00" fill="#000000">StorageDead(_6)</text>
<text text-anchor="start" x="729" y="-472.8" font-family="monospace" font-size="14.00" fill="#000000">_9 = const false</text>
<polygon fill="none" stroke="#000000" points="726,-445 726,-466 865,-466 865,-445 726,-445"/>
<text text-anchor="start" x="729" y="-451.8" font-family="monospace" font-size="14.00" fill="#000000">drop(_1)</text>
</g>
<!-- bb5__0_3&#45;&gt;bb6__0_3 -->
<g id="edge8" class="edge">
<title>bb5__0_3&#45;&gt;bb6__0_3</title>
<path fill="none" stroke="#000000" d="M795,-577.7708C795,-565.3618 795,-551.1598 795,-537.6262"/>
<polygon fill="#000000" stroke="#000000" points="798.5001,-537.448 795,-527.4481 791.5001,-537.4481 798.5001,-537.448"/>
<text text-anchor="middle" x="820" y="-548.8" font-family="monospace" font-size="14.00" fill="#000000">return</text>
</g>
<!-- bb5__0_3&#45;&gt;bb9__0_3 -->
<g id="edge9" class="edge">
<title>bb5__0_3&#45;&gt;bb9__0_3</title>
<path fill="none" stroke="#000000" d="M840.687,-577.8056C854.993,-566.9838 870.9722,-555.2532 886,-545 901.0557,-534.7277 917.8049,-524.1142 933.1806,-514.6776"/>
<polygon fill="#000000" stroke="#000000" points="935.3355,-517.463 942.0518,-509.2689 931.6915,-511.4863 935.3355,-517.463"/>
<text text-anchor="middle" x="911" y="-548.8" font-family="monospace" font-size="14.00" fill="#000000">unwind</text>
</g>
<!-- bb7__0_3 -->
<g id="node8" class="node">
<title>bb7__0_3</title>
<polygon fill="#c0c0c0" stroke="transparent" points="726,-365 726,-386 865,-386 865,-365 726,-365"/>
<polygon fill="none" stroke="#000000" points="726,-365 726,-386 865,-386 865,-365 726,-365"/>
<text text-anchor="start" x="791" y="-371.8" font-family="monospace" font-size="14.00" fill="#000000">7</text>
<polygon fill="none" stroke="#000000" points="726,-329 726,-365 865,-365 865,-329 726,-329"/>
<text text-anchor="start" x="729" y="-350.8" font-family="monospace" font-size="14.00" fill="#000000">_9 = const false</text>
<text text-anchor="start" x="729" y="-335.8" font-family="monospace" font-size="14.00" fill="#000000">StorageDead(_1)</text>
<polygon fill="none" stroke="#000000" points="726,-308 726,-329 865,-329 865,-308 726,-308"/>
<text text-anchor="start" x="729" y="-314.8" font-family="monospace" font-size="14.00" fill="#000000">return</text>
</g>
<!-- bb6__0_3&#45;&gt;bb7__0_3 -->
<g id="edge10" class="edge">
<title>bb6__0_3&#45;&gt;bb7__0_3</title>
<path fill="none" stroke="#000000" d="M795,-440.6523C795,-427.7838 795,-413.54 795,-400.1256"/>
<polygon fill="#000000" stroke="#000000" points="798.5001,-400.0656 795,-390.0657 791.5001,-400.0657 798.5001,-400.0656"/>
<text text-anchor="middle" x="820" y="-411.8" font-family="monospace" font-size="14.00" fill="#000000">return</text>
</g>
<!-- bb8__0_3 -->
<g id="node9" class="node">
<title>bb8__0_3</title>
<polygon fill="#c0c0c0" stroke="transparent" points="999,-357 999,-378 1138,-378 1138,-357 999,-357"/>
<polygon fill="none" stroke="#000000" points="999,-357 999,-378 1138,-378 1138,-357 999,-357"/>
<text text-anchor="start" x="1064" y="-363.8" font-family="monospace" font-size="14.00" fill="#000000">8</text>
<polygon fill="none" stroke="#000000" points="999,-336 999,-357 1138,-357 1138,-336 999,-336"/>
<text text-anchor="start" x="1002" y="-342.8" font-family="monospace" font-size="14.00" fill="#000000">_9 = const false</text>
<polygon fill="none" stroke="#000000" points="999,-315 999,-336 1138,-336 1138,-315 999,-315"/>
<text text-anchor="start" x="1002" y="-321.8" font-family="monospace" font-size="14.00" fill="#000000">drop(_1)</text>
</g>
<!-- bb8__0_3&#45;&gt;bb1__0_3 -->
<g id="edge11" class="edge">
<title>bb8__0_3&#45;&gt;bb1__0_3</title>
<path fill="none" stroke="#000000" d="M1031.396,-311.2961C1014.7188,-295.029 995.129,-275.9209 978.9216,-260.1121"/>
<polygon fill="#000000" stroke="#000000" points="981.3381,-257.5798 971.7356,-253.1028 976.4503,-262.5908 981.3381,-257.5798"/>
<text text-anchor="middle" x="1028" y="-274.8" font-family="monospace" font-size="14.00" fill="#000000">return</text>
</g>
<!-- bb9__0_3&#45;&gt;bb1__0_3 -->
<g id="edge12" class="edge">
<title>bb9__0_3&#45;&gt;bb1__0_3</title>
<path fill="none" stroke="#000000" d="M969.1091,-458.8055C958.5404,-440.4987 945.6079,-414.7017 940,-390 930.2732,-347.1555 934.64,-296.3249 939.529,-263.1792"/>
<polygon fill="#000000" stroke="#000000" points="943.0225,-263.4937 941.1175,-253.0715 936.1074,-262.4069 943.0225,-263.4937"/>
<text text-anchor="middle" x="961" y="-343.3" font-family="monospace" font-size="14.00" fill="#000000">false</text>
</g>
<!-- bb9__0_3&#45;&gt;bb8__0_3 -->
<g id="edge13" class="edge">
<title>bb9__0_3&#45;&gt;bb8__0_3</title>
<path fill="none" stroke="#000000" d="M1000.2235,-458.8721C1011.6678,-439.982 1027.6411,-413.6165 1041.2065,-391.2254"/>
<polygon fill="#000000" stroke="#000000" points="1044.277,-392.9119 1046.4652,-382.5455 1038.29,-389.2847 1044.277,-392.9119"/>
<text text-anchor="middle" x="1065.5" y="-411.8" font-family="monospace" font-size="14.00" fill="#000000">otherwise</text>
</g>
</g>
</svg>
