<?xml version="1.0" encoding="UTF-8" standalone="no"?>
<!DOCTYPE svg PUBLIC "-//W3C//DTD SVG 1.1//EN"
 "http://www.w3.org/Graphics/SVG/1.1/DTD/svg11.dtd">
<!-- Generated by graphviz version 2.40.1 (20161225.0304)
 -->
<!-- Title: Mir_0_3 Pages: 1 -->
<svg width="1749pt" height="1081pt"
 viewBox="0.00 0.00 1749.00 1081.00" xmlns="http://www.w3.org/2000/svg" xmlns:xlink="http://www.w3.org/1999/xlink">
<g id="graph0" class="graph" transform="scale(1 1) rotate(0) translate(4 1077)">
<title>Mir_0_3</title>
<polygon fill="#ffffff" stroke="transparent" points="-4,4 -4,-1077 1745,-1077 1745,4 -4,4"/>
<text text-anchor="start" x="668" y="-172.8" font-family="monospace" font-size="14.00" fill="#000000">fn main() &#45;&gt; ()</text>
<text text-anchor="start" x="668" y="-157.8" font-family="monospace" font-size="14.00" fill="#000000">let _1: std::boxed::Box&lt;std::string::String&gt;;</text>
<text text-anchor="start" x="668" y="-142.8" font-family="monospace" font-size="14.00" fill="#000000">let mut _2: std::boxed::Box&lt;std::string::String&gt;;</text>
<text text-anchor="start" x="668" y="-127.8" font-family="monospace" font-size="14.00" fill="#000000">let mut _3: std::string::String;</text>
<text text-anchor="start" x="668" y="-112.8" font-family="monospace" font-size="14.00" fill="#000000">let mut _4: &amp;str;</text>
<text text-anchor="start" x="668" y="-97.8" font-family="monospace" font-size="14.00" fill="#000000">let _5: &amp;str;</text>
<text text-anchor="start" x="668" y="-82.8" font-family="monospace" font-size="14.00" fill="#000000">let _6: std::string::String;</text>
<text text-anchor="start" x="668" y="-67.8" font-family="monospace" font-size="14.00" fill="#000000">let mut _7: bool;</text>
<text text-anchor="start" x="668" y="-52.8" font-family="monospace" font-size="14.00" fill="#000000">let mut _8: ();</text>
<text text-anchor="start" x="668" y="-37.8" font-family="monospace" font-size="14.00" fill="#000000">let mut _9: ();</text>
<text text-anchor="start" x="668" y="-22.8" font-family="monospace" font-size="14.00" fill="#000000">debug foo1 =&gt; _1;</text>
<text text-anchor="start" x="668" y="-7.8" font-family="monospace" font-size="14.00" fill="#000000">debug _foo2 =&gt; _6;</text>
<!-- bb0__0_3 -->
<g id="node1" class="node">
<title>bb0__0_3</title>
<polygon fill="#c0c0c0" stroke="transparent" points="643,-1048 643,-1069 1153,-1069 1153,-1048 643,-1048"/>
<polygon fill="none" stroke="#000000" points="643,-1048 643,-1069 1153,-1069 1153,-1048 643,-1048"/>
<text text-anchor="start" x="893.5" y="-1054.8" font-family="monospace" font-size="14.00" fill="#000000">0</text>
<polygon fill="none" stroke="#000000" points="643,-922 643,-1048 1153,-1048 1153,-922 643,-922"/>
<text text-anchor="start" x="646" y="-1033.8" font-family="monospace" font-size="14.00" fill="#000000">_7 = const false</text>
<text text-anchor="start" x="646" y="-1018.8" font-family="monospace" font-size="14.00" fill="#000000">StorageLive(_1)</text>
<text text-anchor="start" x="646" y="-1003.8" font-family="monospace" font-size="14.00" fill="#000000">StorageLive(_2)</text>
<text text-anchor="start" x="646" y="-988.8" font-family="monospace" font-size="14.00" fill="#000000">StorageLive(_3)</text>
<text text-anchor="start" x="646" y="-973.8" font-family="monospace" font-size="14.00" fill="#000000">StorageLive(_4)</text>
<text text-anchor="start" x="646" y="-958.8" font-family="monospace" font-size="14.00" fill="#000000">StorageLive(_5)</text>
<text text-anchor="start" x="646" y="-943.8" font-family="monospace" font-size="14.00" fill="#000000">_5 = const &quot;bar1&quot;</text>
<text text-anchor="start" x="646" y="-928.8" font-family="monospace" font-size="14.00" fill="#000000">_4 = _5</text>
<polygon fill="none" stroke="#000000" points="643,-901 643,-922 1153,-922 1153,-901 643,-901"/>
<text text-anchor="start" x="646" y="-907.8" font-family="monospace" font-size="14.00" fill="#000000">_3 = const &lt;str as std::string::ToString&gt;::to_string(move _4)</text>
</g>
<!-- bb2__0_3 -->
<g id="node3" class="node">
<title>bb2__0_3</title>
<polygon fill="#c0c0c0" stroke="transparent" points="486,-820.5 486,-841.5 1012,-841.5 1012,-820.5 486,-820.5"/>
<polygon fill="none" stroke="#000000" points="486,-820.5 486,-841.5 1012,-841.5 1012,-820.5 486,-820.5"/>
<text text-anchor="start" x="744.5" y="-827.3" font-family="monospace" font-size="14.00" fill="#000000">2</text>
<polygon fill="none" stroke="#000000" points="486,-799.5 486,-820.5 1012,-820.5 1012,-799.5 486,-799.5"/>
<text text-anchor="start" x="489" y="-806.3" font-family="monospace" font-size="14.00" fill="#000000">StorageDead(_4)</text>
<polygon fill="none" stroke="#000000" points="486,-778.5 486,-799.5 1012,-799.5 1012,-778.5 486,-778.5"/>
<text text-anchor="start" x="489" y="-785.3" font-family="monospace" font-size="14.00" fill="#000000">_2 = const std::boxed::Box::&lt;std::string::String&gt;::new(move _3)</text>
</g>
<!-- bb0__0_3&#45;&gt;bb2__0_3 -->
<g id="edge1" class="edge">
<title>bb0__0_3&#45;&gt;bb2__0_3</title>
<path fill="none" stroke="#000000" d="M822.8452,-896.9832C810.1476,-882.1125 797.4754,-867.2716 786.3041,-854.1884"/>
<polygon fill="#000000" stroke="#000000" points="788.7108,-851.617 779.5556,-846.2849 783.3874,-856.1625 788.7108,-851.617"/>
<text text-anchor="middle" x="831" y="-867.8" font-family="monospace" font-size="14.00" fill="#000000">return</text>
</g>
<!-- bb7__0_3 -->
<g id="node8" class="node">
<title>bb7__0_3</title>
<polygon fill="#c0c0c0" stroke="transparent" points="940,-469 940,-490 1054,-490 1054,-469 940,-469"/>
<polygon fill="none" stroke="#000000" points="940,-469 940,-490 1054,-490 1054,-469 940,-469"/>
<text text-anchor="start" x="992.5" y="-475.8" font-family="monospace" font-size="14.00" fill="#000000">7</text>
<polygon fill="none" stroke="#000000" points="940,-448 940,-469 1054,-469 1054,-448 940,-448"/>
<text text-anchor="start" x="943" y="-454.8" font-family="monospace" font-size="14.00" fill="#000000">switchInt(_7)</text>
</g>
<!-- bb0__0_3&#45;&gt;bb7__0_3 -->
<g id="edge2" class="edge">
<title>bb0__0_3&#45;&gt;bb7__0_3</title>
<path fill="none" stroke="#000000" d="M998.8243,-896.6519C1011.1157,-881.0783 1021.8427,-864.03 1029,-846 1076.0078,-727.5825 1033.4142,-572.1891 1010.0092,-503.8275"/>
<polygon fill="#000000" stroke="#000000" points="1013.313,-502.6718 1006.7082,-494.3876 1006.7053,-504.9824 1013.313,-502.6718"/>
<text text-anchor="middle" x="1074" y="-745.8" font-family="monospace" font-size="14.00" fill="#000000">unwind</text>
</g>
<!-- bb1__0_3 -->
<g id="node2" class="node">
<title>bb1__0_3</title>
<polygon fill="#c0c0c0" stroke="transparent" points="755,-213 755,-234 811,-234 811,-213 755,-213"/>
<polygon fill="none" stroke="#000000" points="755,-213 755,-234 811,-234 811,-213 755,-213"/>
<text text-anchor="start" x="778.5" y="-219.8" font-family="monospace" font-size="14.00" fill="#000000">1</text>
<polygon fill="none" stroke="#000000" points="755,-192 755,-213 811,-213 811,-192 755,-192"/>
<text text-anchor="start" x="758" y="-198.8" font-family="monospace" font-size="14.00" fill="#000000">resume</text>
</g>
<!-- bb3__0_3 -->
<g id="node4" class="node">
<title>bb3__0_3</title>
<polygon fill="#c0c0c0" stroke="transparent" points="684,-698.5 684,-719.5 814,-719.5 814,-698.5 684,-698.5"/>
<polygon fill="none" stroke="#000000" points="684,-698.5 684,-719.5 814,-719.5 814,-698.5 684,-698.5"/>
<text text-anchor="start" x="744.5" y="-705.3" font-family="monospace" font-size="14.00" fill="#000000">3</text>
<polygon fill="none" stroke="#000000" points="684,-587.5 684,-698.5 814,-698.5 814,-587.5 684,-587.5"/>
<text text-anchor="start" x="687" y="-684.3" font-family="monospace" font-size="14.00" fill="#000000">StorageDead(_3)</text>
<text text-anchor="start" x="687" y="-669.3" font-family="monospace" font-size="14.00" fill="#000000">_7 = const true</text>
<text text-anchor="start" x="687" y="-654.3" font-family="monospace" font-size="14.00" fill="#000000">_1 = move _2</text>
<text text-anchor="start" x="687" y="-639.3" font-family="monospace" font-size="14.00" fill="#000000">StorageDead(_2)</text>
<text text-anchor="start" x="687" y="-624.3" font-family="monospace" font-size="14.00" fill="#000000">StorageDead(_5)</text>
<text text-anchor="start" x="687" y="-609.3" font-family="monospace" font-size="14.00" fill="#000000">StorageLive(_6)</text>
<text text-anchor="start" x="687" y="-594.3" font-family="monospace" font-size="14.00" fill="#000000">_6 = move (*_1)</text>
<polygon fill="none" stroke="#000000" points="684,-566.5 684,-587.5 814,-587.5 814,-566.5 684,-566.5"/>
<text text-anchor="start" x="687" y="-573.3" font-family="monospace" font-size="14.00" fill="#000000">drop(_6)</text>
</g>
<!-- bb2__0_3&#45;&gt;bb3__0_3 -->
<g id="edge3" class="edge">
<title>bb2__0_3&#45;&gt;bb3__0_3</title>
<path fill="none" stroke="#000000" d="M749,-774.6743C749,-762.7205 749,-748.8063 749,-734.5963"/>
<polygon fill="#000000" stroke="#000000" points="752.5001,-734.2206 749,-724.2207 745.5001,-734.2207 752.5001,-734.2206"/>
<text text-anchor="middle" x="774" y="-745.8" font-family="monospace" font-size="14.00" fill="#000000">return</text>
</g>
<!-- bb2__0_3&#45;&gt;bb7__0_3 -->
<g id="edge4" class="edge">
<title>bb2__0_3&#45;&gt;bb7__0_3</title>
<path fill="none" stroke="#000000" d="M785.7442,-774.9483C791.6029,-769.0375 797.5314,-762.9076 803,-757 879.2293,-674.6519 947.1688,-559.7961 978.5731,-503.2407"/>
<polygon fill="#000000" stroke="#000000" points="981.71,-504.8001 983.4733,-494.353 975.58,-501.4203 981.71,-504.8001"/>
<text text-anchor="middle" x="967" y="-639.8" font-family="monospace" font-size="14.00" fill="#000000">unwind</text>
</g>
<!-- bb4__0_3 -->
<g id="node5" class="node">
<title>bb4__0_3</title>
<polygon fill="#c0c0c0" stroke="transparent" points="8,-487 8,-508 906,-508 906,-487 8,-487"/>
<polygon fill="none" stroke="#000000" points="8,-487 8,-508 906,-508 906,-487 8,-487"/>
<text text-anchor="start" x="452.5" y="-493.8" font-family="monospace" font-size="14.00" fill="#000000">4</text>
<polygon fill="none" stroke="#000000" points="8,-451 8,-487 906,-487 906,-451 8,-451"/>
<text text-anchor="start" x="11" y="-472.8" font-family="monospace" font-size="14.00" fill="#000000">StorageDead(_6)</text>
<text text-anchor="start" x="11" y="-457.8" font-family="monospace" font-size="14.00" fill="#000000">_7 = const false</text>
<polygon fill="none" stroke="#000000" points="8,-430 8,-451 906,-451 906,-430 8,-430"/>
<text text-anchor="start" x="11" y="-436.8" font-family="monospace" font-size="14.00" fill="#000000">_9 = const alloc::alloc::box_free::&lt;std::string::String&gt;(move (_1.0: std::ptr::Unique&lt;std::string::String&gt;))</text>
</g>
<!-- bb3__0_3&#45;&gt;bb4__0_3 -->
<g id="edge5" class="edge">
<title>bb3__0_3&#45;&gt;bb4__0_3</title>
<path fill="none" stroke="#000000" d="M675.693,-599.6915C633.731,-574.6149 581.0131,-543.1106 537.8513,-517.3169"/>
<polygon fill="#000000" stroke="#000000" points="539.4527,-514.1967 529.0733,-512.0712 535.8618,-520.2055 539.4527,-514.1967"/>
<text text-anchor="middle" x="602" y="-533.8" font-family="monospace" font-size="14.00" fill="#000000">return</text>
</g>
<!-- bb3__0_3&#45;&gt;bb7__0_3 -->
<g id="edge6" class="edge">
<title>bb3__0_3&#45;&gt;bb7__0_3</title>
<path fill="none" stroke="#000000" d="M822.3408,-573.5762C840.6702,-558.0798 860.8676,-542.5531 881,-530 898.2332,-519.2547 904.8535,-521.1186 923,-512 930.91,-508.0252 939.1463,-503.5716 947.1285,-499.0772"/>
<polygon fill="#000000" stroke="#000000" points="949.0544,-502.008 956.0018,-494.009 945.5825,-495.9296 949.0544,-502.008"/>
<text text-anchor="middle" x="906" y="-533.8" font-family="monospace" font-size="14.00" fill="#000000">unwind</text>
</g>
<!-- bb5__0_3 -->
<g id="node6" class="node">
<title>bb5__0_3</title>
<polygon fill="#c0c0c0" stroke="transparent" points="388,-350 388,-371 527,-371 527,-350 388,-350"/>
<polygon fill="none" stroke="#000000" points="388,-350 388,-371 527,-371 527,-350 388,-350"/>
<text text-anchor="start" x="453" y="-356.8" font-family="monospace" font-size="14.00" fill="#000000">5</text>
<polygon fill="none" stroke="#000000" points="388,-314 388,-350 527,-350 527,-314 388,-314"/>
<text text-anchor="start" x="391" y="-335.8" font-family="monospace" font-size="14.00" fill="#000000">_7 = const false</text>
<text text-anchor="start" x="391" y="-320.8" font-family="monospace" font-size="14.00" fill="#000000">StorageDead(_1)</text>
<polygon fill="none" stroke="#000000" points="388,-293 388,-314 527,-314 527,-293 388,-293"/>
<text text-anchor="start" x="391" y="-299.8" font-family="monospace" font-size="14.00" fill="#000000">return</text>
</g>
<!-- bb4__0_3&#45;&gt;bb5__0_3 -->
<g id="edge7" class="edge">
<title>bb4__0_3&#45;&gt;bb5__0_3</title>
<path fill="none" stroke="#000000" d="M457,-425.6523C457,-412.7838 457,-398.54 457,-385.1256"/>
<polygon fill="#000000" stroke="#000000" points="460.5001,-385.0656 457,-375.0657 453.5001,-385.0657 460.5001,-385.0656"/>
<text text-anchor="middle" x="482" y="-396.8" font-family="monospace" font-size="14.00" fill="#000000">return</text>
</g>
<!-- bb6__0_3 -->
<g id="node7" class="node">
<title>bb6__0_3</title>
<polygon fill="#c0c0c0" stroke="transparent" points="835,-342 835,-363 1733,-363 1733,-342 835,-342"/>
<polygon fill="none" stroke="#000000" points="835,-342 835,-363 1733,-363 1733,-342 835,-342"/>
<text text-anchor="start" x="1279.5" y="-348.8" font-family="monospace" font-size="14.00" fill="#000000">6</text>
<polygon fill="none" stroke="#000000" points="835,-321 835,-342 1733,-342 1733,-321 835,-321"/>
<text text-anchor="start" x="838" y="-327.8" font-family="monospace" font-size="14.00" fill="#000000">_7 = const false</text>
<polygon fill="none" stroke="#000000" points="835,-300 835,-321 1733,-321 1733,-300 835,-300"/>
<text text-anchor="start" x="838" y="-306.8" font-family="monospace" font-size="14.00" fill="#000000">_8 = const alloc::alloc::box_free::&lt;std::string::String&gt;(move (_1.0: std::ptr::Unique&lt;std::string::String&gt;))</text>
</g>
<!-- bb6__0_3&#45;&gt;bb1__0_3 -->
<g id="edge8" class="edge">
<title>bb6__0_3&#45;&gt;bb1__0_3</title>
<path fill="none" stroke="#000000" d="M1134.3621,-296.4573C1030.1446,-271.703 897.9657,-240.3072 829.242,-223.9836"/>
<polygon fill="#000000" stroke="#000000" points="829.7105,-220.4976 819.1723,-221.5918 828.0928,-227.3081 829.7105,-220.4976"/>
<text text-anchor="middle" x="1043" y="-259.8" font-family="monospace" font-size="14.00" fill="#000000">return</text>
</g>
<!-- bb7__0_3&#45;&gt;bb1__0_3 -->
<g id="edge9" class="edge">
<title>bb7__0_3&#45;&gt;bb1__0_3</title>
<path fill="none" stroke="#000000" d="M957.0362,-443.8996C946.2111,-437.6239 934.3442,-431.205 923,-426 860.1466,-397.1613 816.092,-431.3458 776,-375 749.7076,-338.0484 759.2782,-283.4507 769.9874,-248.0488"/>
<polygon fill="#000000" stroke="#000000" points="773.4372,-248.7527 773.1586,-238.1615 766.7716,-246.6147 773.4372,-248.7527"/>
<text text-anchor="middle" x="797" y="-328.3" font-family="monospace" font-size="14.00" fill="#000000">false</text>
</g>
<!-- bb7__0_3&#45;&gt;bb6__0_3 -->
<g id="edge10" class="edge">
<title>bb7__0_3&#45;&gt;bb6__0_3</title>
<path fill="none" stroke="#000000" d="M1049.6402,-443.8721C1091.7517,-423.7701 1151.5976,-395.2025 1200.272,-371.9677"/>
<polygon fill="#000000" stroke="#000000" points="1202.0194,-375.012 1209.5361,-367.5455 1199.0038,-368.6948 1202.0194,-375.012"/>
<text text-anchor="middle" x="1186.5" y="-396.8" font-family="monospace" font-size="14.00" fill="#000000">otherwise</text>
</g>
</g>
</svg>
