<?xml version="1.0" encoding="UTF-8" standalone="no"?>
<!DOCTYPE svg PUBLIC "-//W3C//DTD SVG 1.1//EN"
 "http://www.w3.org/Graphics/SVG/1.1/DTD/svg11.dtd">
<!-- Generated by graphviz version 2.40.1 (20161225.0304)
 -->
<!-- Title: Mir_0_3 Pages: 1 -->
<svg width="2592pt" height="3960pt"
 viewBox="0.00 0.00 2592.00 3960.00" xmlns="http://www.w3.org/2000/svg" xmlns:xlink="http://www.w3.org/1999/xlink">
<g id="graph0" class="graph" transform="scale(1 1) rotate(0) translate(4 3956)">
<title>Mir_0_3</title>
<polygon fill="#ffffff" stroke="transparent" points="-4,4 -4,-3956 2588,-3956 2588,4 -4,4"/>
<text text-anchor="start" x="656.5" y="-1027.8" font-family="monospace" font-size="14.00" fill="#000000">fn main() &#45;&gt; ()</text>
<text text-anchor="start" x="656.5" y="-1012.8" font-family="monospace" font-size="14.00" fill="#000000">let _1: &amp;&amp;str;</text>
<text text-anchor="start" x="656.5" y="-997.8" font-family="monospace" font-size="14.00" fill="#000000">let _2: std::boxed::Box&lt;std::string::String&gt;;</text>
<text text-anchor="start" x="656.5" y="-982.8" font-family="monospace" font-size="14.00" fill="#000000">let mut _3: std::string::String;</text>
<text text-anchor="start" x="656.5" y="-967.8" font-family="monospace" font-size="14.00" fill="#000000">let mut _4: &amp;str;</text>
<text text-anchor="start" x="656.5" y="-952.8" font-family="monospace" font-size="14.00" fill="#000000">let _5: &amp;str;</text>
<text text-anchor="start" x="656.5" y="-937.8" font-family="monospace" font-size="14.00" fill="#000000">let _6: std::boxed::Box&lt;std::string::String&gt;;</text>
<text text-anchor="start" x="656.5" y="-922.8" font-family="monospace" font-size="14.00" fill="#000000">let _7: std::boxed::Box&lt;std::string::String&gt;;</text>
<text text-anchor="start" x="656.5" y="-907.8" font-family="monospace" font-size="14.00" fill="#000000">let _8: ();</text>
<text text-anchor="start" x="656.5" y="-892.8" font-family="monospace" font-size="14.00" fill="#000000">let mut _9: std::fmt::Arguments;</text>
<text text-anchor="start" x="656.5" y="-877.8" font-family="monospace" font-size="14.00" fill="#000000">let mut _10: &amp;[&amp;str];</text>
<text text-anchor="start" x="656.5" y="-862.8" font-family="monospace" font-size="14.00" fill="#000000">let mut _11: &amp;[&amp;str; 5];</text>
<text text-anchor="start" x="656.5" y="-847.8" font-family="monospace" font-size="14.00" fill="#000000">let _12: &amp;[&amp;str; 5];</text>
<text text-anchor="start" x="656.5" y="-832.8" font-family="monospace" font-size="14.00" fill="#000000">let mut _13: &amp;[std::fmt::ArgumentV1];</text>
<text text-anchor="start" x="656.5" y="-817.8" font-family="monospace" font-size="14.00" fill="#000000">let mut _14: &amp;[std::fmt::ArgumentV1; 4];</text>
<text text-anchor="start" x="656.5" y="-802.8" font-family="monospace" font-size="14.00" fill="#000000">let _15: &amp;[std::fmt::ArgumentV1; 4];</text>
<text text-anchor="start" x="656.5" y="-787.8" font-family="monospace" font-size="14.00" fill="#000000">let _16: [std::fmt::ArgumentV1; 4];</text>
<text text-anchor="start" x="656.5" y="-772.8" font-family="monospace" font-size="14.00" fill="#000000">let mut _17: (&amp;&amp;str, &amp;u32, &amp;&amp;str, &amp;&amp;std::boxed::Box&lt;std::string::String&gt;);</text>
<text text-anchor="start" x="656.5" y="-757.8" font-family="monospace" font-size="14.00" fill="#000000">let mut _18: &amp;&amp;str;</text>
<text text-anchor="start" x="656.5" y="-742.8" font-family="monospace" font-size="14.00" fill="#000000">let mut _19: &amp;u32;</text>
<text text-anchor="start" x="656.5" y="-727.8" font-family="monospace" font-size="14.00" fill="#000000">let mut _20: &amp;&amp;str;</text>
<text text-anchor="start" x="656.5" y="-712.8" font-family="monospace" font-size="14.00" fill="#000000">let mut _21: &amp;&amp;std::boxed::Box&lt;std::string::String&gt;;</text>
<text text-anchor="start" x="656.5" y="-697.8" font-family="monospace" font-size="14.00" fill="#000000">let _22: &amp;std::boxed::Box&lt;std::string::String&gt;;</text>
<text text-anchor="start" x="656.5" y="-682.8" font-family="monospace" font-size="14.00" fill="#000000">let _23: &amp;&amp;str;</text>
<text text-anchor="start" x="656.5" y="-667.8" font-family="monospace" font-size="14.00" fill="#000000">let _24: &amp;u32;</text>
<text text-anchor="start" x="656.5" y="-652.8" font-family="monospace" font-size="14.00" fill="#000000">let _25: &amp;&amp;str;</text>
<text text-anchor="start" x="656.5" y="-637.8" font-family="monospace" font-size="14.00" fill="#000000">let _26: &amp;&amp;std::boxed::Box&lt;std::string::String&gt;;</text>
<text text-anchor="start" x="656.5" y="-622.8" font-family="monospace" font-size="14.00" fill="#000000">let mut _27: std::fmt::ArgumentV1;</text>
<text text-anchor="start" x="656.5" y="-607.8" font-family="monospace" font-size="14.00" fill="#000000">let mut _28: &amp;&amp;str;</text>
<text text-anchor="start" x="656.5" y="-592.8" font-family="monospace" font-size="14.00" fill="#000000">let mut _29: for&lt;&#39;r, &#39;s, &#39;t0&gt; fn(&amp;&#39;r &amp;str, &amp;&#39;s mut std::fmt::Formatter&lt;&#39;t0&gt;) &#45;&gt; std::result::Result&lt;(), std::fmt::Error&gt;;</text>
<text text-anchor="start" x="656.5" y="-577.8" font-family="monospace" font-size="14.00" fill="#000000">let mut _30: std::fmt::ArgumentV1;</text>
<text text-anchor="start" x="656.5" y="-562.8" font-family="monospace" font-size="14.00" fill="#000000">let mut _31: &amp;u32;</text>
<text text-anchor="start" x="656.5" y="-547.8" font-family="monospace" font-size="14.00" fill="#000000">let mut _32: for&lt;&#39;r, &#39;s, &#39;t0&gt; fn(&amp;&#39;r u32, &amp;&#39;s mut std::fmt::Formatter&lt;&#39;t0&gt;) &#45;&gt; std::result::Result&lt;(), std::fmt::Error&gt;;</text>
<text text-anchor="start" x="656.5" y="-532.8" font-family="monospace" font-size="14.00" fill="#000000">let mut _33: std::fmt::ArgumentV1;</text>
<text text-anchor="start" x="656.5" y="-517.8" font-family="monospace" font-size="14.00" fill="#000000">let mut _34: &amp;&amp;str;</text>
<text text-anchor="start" x="656.5" y="-502.8" font-family="monospace" font-size="14.00" fill="#000000">let mut _35: for&lt;&#39;r, &#39;s, &#39;t0&gt; fn(&amp;&#39;r &amp;str, &amp;&#39;s mut std::fmt::Formatter&lt;&#39;t0&gt;) &#45;&gt; std::result::Result&lt;(), std::fmt::Error&gt;;</text>
<text text-anchor="start" x="656.5" y="-487.8" font-family="monospace" font-size="14.00" fill="#000000">let mut _36: std::fmt::ArgumentV1;</text>
<text text-anchor="start" x="656.5" y="-472.8" font-family="monospace" font-size="14.00" fill="#000000">let mut _37: &amp;&amp;std::boxed::Box&lt;std::string::String&gt;;</text>
<text text-anchor="start" x="656.5" y="-457.8" font-family="monospace" font-size="14.00" fill="#000000">let mut _38: for&lt;&#39;r, &#39;s, &#39;t0&gt; fn(&amp;&#39;r &amp;std::boxed::Box&lt;std::string::String&gt;, &amp;&#39;s mut std::fmt::Formatter&lt;&#39;t0&gt;) &#45;&gt; std::result::Result&lt;(), std::fmt::Error&gt;;</text>
<text text-anchor="start" x="656.5" y="-442.8" font-family="monospace" font-size="14.00" fill="#000000">let mut _39: &amp;[std::fmt::rt::v1::Argument];</text>
<text text-anchor="start" x="656.5" y="-427.8" font-family="monospace" font-size="14.00" fill="#000000">let mut _40: &amp;[std::fmt::rt::v1::Argument; 4];</text>
<text text-anchor="start" x="656.5" y="-412.8" font-family="monospace" font-size="14.00" fill="#000000">let _41: &amp;[std::fmt::rt::v1::Argument; 4];</text>
<text text-anchor="start" x="656.5" y="-397.8" font-family="monospace" font-size="14.00" fill="#000000">let mut _42: &amp;&amp;str;</text>
<text text-anchor="start" x="656.5" y="-382.8" font-family="monospace" font-size="14.00" fill="#000000">let _43: &amp;&amp;str;</text>
<text text-anchor="start" x="656.5" y="-367.8" font-family="monospace" font-size="14.00" fill="#000000">let _44: (&amp;&amp;str, &amp;&amp;str);</text>
<text text-anchor="start" x="656.5" y="-352.8" font-family="monospace" font-size="14.00" fill="#000000">let _45: &amp;&amp;str;</text>
<text text-anchor="start" x="656.5" y="-337.8" font-family="monospace" font-size="14.00" fill="#000000">let _46: &amp;u32;</text>
<text text-anchor="start" x="656.5" y="-322.8" font-family="monospace" font-size="14.00" fill="#000000">let _47: &amp;&amp;str;</text>
<text text-anchor="start" x="656.5" y="-307.8" font-family="monospace" font-size="14.00" fill="#000000">let _48: &amp;&amp;(&amp;&amp;str, &amp;&amp;str);</text>
<text text-anchor="start" x="656.5" y="-292.8" font-family="monospace" font-size="14.00" fill="#000000">let mut _49: &amp;&amp;str;</text>
<text text-anchor="start" x="656.5" y="-277.8" font-family="monospace" font-size="14.00" fill="#000000">let mut _50: &amp;[std::fmt::rt::v1::Argument; 4];</text>
<text text-anchor="start" x="656.5" y="-262.8" font-family="monospace" font-size="14.00" fill="#000000">let mut _51: &amp;&amp;str;</text>
<text text-anchor="start" x="656.5" y="-247.8" font-family="monospace" font-size="14.00" fill="#000000">let mut _52: &amp;u32;</text>
<text text-anchor="start" x="656.5" y="-232.8" font-family="monospace" font-size="14.00" fill="#000000">let mut _53: &amp;&amp;str;</text>
<text text-anchor="start" x="656.5" y="-217.8" font-family="monospace" font-size="14.00" fill="#000000">let mut _54: &amp;[&amp;str; 5];</text>
<text text-anchor="start" x="656.5" y="-202.8" font-family="monospace" font-size="14.00" fill="#000000">let mut _55: &amp;&amp;str;</text>
<text text-anchor="start" x="656.5" y="-187.8" font-family="monospace" font-size="14.00" fill="#000000">debug before =&gt; _1;</text>
<text text-anchor="start" x="656.5" y="-172.8" font-family="monospace" font-size="14.00" fill="#000000">debug foo1 =&gt; _2;</text>
<text text-anchor="start" x="656.5" y="-157.8" font-family="monospace" font-size="14.00" fill="#000000">debug tmp =&gt; _7;</text>
<text text-anchor="start" x="656.5" y="-142.8" font-family="monospace" font-size="14.00" fill="#000000">debug arg0 =&gt; _23;</text>
<text text-anchor="start" x="656.5" y="-127.8" font-family="monospace" font-size="14.00" fill="#000000">debug arg1 =&gt; _24;</text>
<text text-anchor="start" x="656.5" y="-112.8" font-family="monospace" font-size="14.00" fill="#000000">debug arg2 =&gt; _25;</text>
<text text-anchor="start" x="656.5" y="-97.8" font-family="monospace" font-size="14.00" fill="#000000">debug arg3 =&gt; _26;</text>
<text text-anchor="start" x="656.5" y="-82.8" font-family="monospace" font-size="14.00" fill="#000000">debug after =&gt; _43;</text>
<text text-anchor="start" x="656.5" y="-67.8" font-family="monospace" font-size="14.00" fill="#000000">debug tmp =&gt; _44;</text>
<text text-anchor="start" x="656.5" y="-52.8" font-family="monospace" font-size="14.00" fill="#000000">debug arg0 =&gt; _45;</text>
<text text-anchor="start" x="656.5" y="-37.8" font-family="monospace" font-size="14.00" fill="#000000">debug arg1 =&gt; _46;</text>
<text text-anchor="start" x="656.5" y="-22.8" font-family="monospace" font-size="14.00" fill="#000000">debug arg2 =&gt; _47;</text>
<text text-anchor="start" x="656.5" y="-7.8" font-family="monospace" font-size="14.00" fill="#000000">debug arg3 =&gt; _48;</text>
<!-- bb0__0_3 -->
<g id="node1" class="node">
<title>bb0__0_3</title>
<polygon fill="#c0c0c0" stroke="transparent" points="1571,-3926.5 1571,-3947.5 2081,-3947.5 2081,-3926.5 1571,-3926.5"/>
<polygon fill="none" stroke="#000000" points="1571,-3926.5 1571,-3947.5 2081,-3947.5 2081,-3926.5 1571,-3926.5"/>
<text text-anchor="start" x="1821.5" y="-3933.3" font-family="monospace" font-size="14.00" fill="#000000">0</text>
<polygon fill="none" stroke="#000000" points="1571,-3785.5 1571,-3926.5 2081,-3926.5 2081,-3785.5 1571,-3785.5"/>
<text text-anchor="start" x="1574" y="-3912.3" font-family="monospace" font-size="14.00" fill="#000000">StorageLive(_1)</text>
<text text-anchor="start" x="1574" y="-3897.3" font-family="monospace" font-size="14.00" fill="#000000">_55 = const main::promoted[6]</text>
<text text-anchor="start" x="1574" y="-3882.3" font-family="monospace" font-size="14.00" fill="#000000">_1 = _55</text>
<text text-anchor="start" x="1574" y="-3867.3" font-family="monospace" font-size="14.00" fill="#000000">StorageLive(_2)</text>
<text text-anchor="start" x="1574" y="-3852.3" font-family="monospace" font-size="14.00" fill="#000000">StorageLive(_3)</text>
<text text-anchor="start" x="1574" y="-3837.3" font-family="monospace" font-size="14.00" fill="#000000">StorageLive(_4)</text>
<text text-anchor="start" x="1574" y="-3822.3" font-family="monospace" font-size="14.00" fill="#000000">StorageLive(_5)</text>
<text text-anchor="start" x="1574" y="-3807.3" font-family="monospace" font-size="14.00" fill="#000000">_5 = const &quot;bar1&quot;</text>
<text text-anchor="start" x="1574" y="-3792.3" font-family="monospace" font-size="14.00" fill="#000000">_4 = _5</text>
<polygon fill="none" stroke="#000000" points="1571,-3764.5 1571,-3785.5 2081,-3785.5 2081,-3764.5 1571,-3764.5"/>
<text text-anchor="start" x="1574" y="-3771.3" font-family="monospace" font-size="14.00" fill="#000000">_3 = const &lt;str as std::string::ToString&gt;::to_string(move _4)</text>
</g>
<!-- bb2__0_3 -->
<g id="node3" class="node">
<title>bb2__0_3</title>
<polygon fill="#c0c0c0" stroke="transparent" points="1563,-3684.5 1563,-3705.5 2089,-3705.5 2089,-3684.5 1563,-3684.5"/>
<polygon fill="none" stroke="#000000" points="1563,-3684.5 1563,-3705.5 2089,-3705.5 2089,-3684.5 1563,-3684.5"/>
<text text-anchor="start" x="1821.5" y="-3691.3" font-family="monospace" font-size="14.00" fill="#000000">2</text>
<polygon fill="none" stroke="#000000" points="1563,-3663.5 1563,-3684.5 2089,-3684.5 2089,-3663.5 1563,-3663.5"/>
<text text-anchor="start" x="1566" y="-3670.3" font-family="monospace" font-size="14.00" fill="#000000">StorageDead(_4)</text>
<polygon fill="none" stroke="#000000" points="1563,-3642.5 1563,-3663.5 2089,-3663.5 2089,-3642.5 1563,-3642.5"/>
<text text-anchor="start" x="1566" y="-3649.3" font-family="monospace" font-size="14.00" fill="#000000">_2 = const std::boxed::Box::&lt;std::string::String&gt;::new(move _3)</text>
</g>
<!-- bb0__0_3&#45;&gt;bb2__0_3 -->
<g id="edge1" class="edge">
<title>bb0__0_3&#45;&gt;bb2__0_3</title>
<path fill="none" stroke="#000000" d="M1826,-3760.9694C1826,-3746.7552 1826,-3732.6887 1826,-3720.1619"/>
<polygon fill="#000000" stroke="#000000" points="1829.5001,-3720.0319 1826,-3710.0319 1822.5001,-3720.032 1829.5001,-3720.0319"/>
<text text-anchor="middle" x="1851" y="-3731.8" font-family="monospace" font-size="14.00" fill="#000000">return</text>
</g>
<!-- bb1__0_3 -->
<g id="node2" class="node">
<title>bb1__0_3</title>
<polygon fill="#c0c0c0" stroke="transparent" points="2011,-1108.5 2011,-1129.5 2067,-1129.5 2067,-1108.5 2011,-1108.5"/>
<polygon fill="none" stroke="#000000" points="2011,-1108.5 2011,-1129.5 2067,-1129.5 2067,-1108.5 2011,-1108.5"/>
<text text-anchor="start" x="2034.5" y="-1115.3" font-family="monospace" font-size="14.00" fill="#000000">1</text>
<polygon fill="none" stroke="#000000" points="2011,-1087.5 2011,-1108.5 2067,-1108.5 2067,-1087.5 2011,-1087.5"/>
<text text-anchor="start" x="2014" y="-1094.3" font-family="monospace" font-size="14.00" fill="#000000">resume</text>
</g>
<!-- bb3__0_3 -->
<g id="node4" class="node">
<title>bb3__0_3</title>
<polygon fill="#c0c0c0" stroke="transparent" points="1076,-3563 1076,-3584 2576,-3584 2576,-3563 1076,-3563"/>
<polygon fill="none" stroke="#000000" points="1076,-3563 1076,-3584 2576,-3584 2576,-3563 1076,-3563"/>
<text text-anchor="start" x="1821.5" y="-3569.8" font-family="monospace" font-size="14.00" fill="#000000">3</text>
<polygon fill="none" stroke="#000000" points="1076,-2747 1076,-3563 2576,-3563 2576,-2747 1076,-2747"/>
<text text-anchor="start" x="1079" y="-3548.8" font-family="monospace" font-size="14.00" fill="#000000">StorageDead(_3)</text>
<text text-anchor="start" x="1079" y="-3533.8" font-family="monospace" font-size="14.00" fill="#000000">StorageDead(_5)</text>
<text text-anchor="start" x="1079" y="-3518.8" font-family="monospace" font-size="14.00" fill="#000000">StorageLive(_6)</text>
<text text-anchor="start" x="1079" y="-3503.8" font-family="monospace" font-size="14.00" fill="#000000">StorageLive(_7)</text>
<text text-anchor="start" x="1079" y="-3488.8" font-family="monospace" font-size="14.00" fill="#000000">_7 = move _2</text>
<text text-anchor="start" x="1079" y="-3473.8" font-family="monospace" font-size="14.00" fill="#000000">StorageLive(_8)</text>
<text text-anchor="start" x="1079" y="-3458.8" font-family="monospace" font-size="14.00" fill="#000000">StorageLive(_9)</text>
<text text-anchor="start" x="1079" y="-3443.8" font-family="monospace" font-size="14.00" fill="#000000">StorageLive(_10)</text>
<text text-anchor="start" x="1079" y="-3428.8" font-family="monospace" font-size="14.00" fill="#000000">StorageLive(_11)</text>
<text text-anchor="start" x="1079" y="-3413.8" font-family="monospace" font-size="14.00" fill="#000000">StorageLive(_12)</text>
<text text-anchor="start" x="1079" y="-3398.8" font-family="monospace" font-size="14.00" fill="#000000">_54 = const main::promoted[5]</text>
<text text-anchor="start" x="1079" y="-3383.8" font-family="monospace" font-size="14.00" fill="#000000">_12 = _54</text>
<text text-anchor="start" x="1079" y="-3368.8" font-family="monospace" font-size="14.00" fill="#000000">_11 = _12</text>
<text text-anchor="start" x="1079" y="-3353.8" font-family="monospace" font-size="14.00" fill="#000000">_10 = move _11 as &amp;[&amp;str] (Pointer(Unsize))</text>
<text text-anchor="start" x="1079" y="-3338.8" font-family="monospace" font-size="14.00" fill="#000000">StorageDead(_11)</text>
<text text-anchor="start" x="1079" y="-3323.8" font-family="monospace" font-size="14.00" fill="#000000">StorageLive(_13)</text>
<text text-anchor="start" x="1079" y="-3308.8" font-family="monospace" font-size="14.00" fill="#000000">StorageLive(_14)</text>
<text text-anchor="start" x="1079" y="-3293.8" font-family="monospace" font-size="14.00" fill="#000000">StorageLive(_15)</text>
<text text-anchor="start" x="1079" y="-3278.8" font-family="monospace" font-size="14.00" fill="#000000">StorageLive(_16)</text>
<text text-anchor="start" x="1079" y="-3263.8" font-family="monospace" font-size="14.00" fill="#000000">StorageLive(_17)</text>
<text text-anchor="start" x="1079" y="-3248.8" font-family="monospace" font-size="14.00" fill="#000000">StorageLive(_18)</text>
<text text-anchor="start" x="1079" y="-3233.8" font-family="monospace" font-size="14.00" fill="#000000">_53 = const main::promoted[4]</text>
<text text-anchor="start" x="1079" y="-3218.8" font-family="monospace" font-size="14.00" fill="#000000">_18 = _53</text>
<text text-anchor="start" x="1079" y="-3203.8" font-family="monospace" font-size="14.00" fill="#000000">StorageLive(_19)</text>
<text text-anchor="start" x="1079" y="-3188.8" font-family="monospace" font-size="14.00" fill="#000000">_52 = const main::promoted[3]</text>
<text text-anchor="start" x="1079" y="-3173.8" font-family="monospace" font-size="14.00" fill="#000000">_19 = _52</text>
<text text-anchor="start" x="1079" y="-3158.8" font-family="monospace" font-size="14.00" fill="#000000">StorageLive(_20)</text>
<text text-anchor="start" x="1079" y="-3143.8" font-family="monospace" font-size="14.00" fill="#000000">_51 = const main::promoted[2]</text>
<text text-anchor="start" x="1079" y="-3128.8" font-family="monospace" font-size="14.00" fill="#000000">_20 = _51</text>
<text text-anchor="start" x="1079" y="-3113.8" font-family="monospace" font-size="14.00" fill="#000000">StorageLive(_21)</text>
<text text-anchor="start" x="1079" y="-3098.8" font-family="monospace" font-size="14.00" fill="#000000">StorageLive(_22)</text>
<text text-anchor="start" x="1079" y="-3083.8" font-family="monospace" font-size="14.00" fill="#000000">_22 = &amp;_7</text>
<text text-anchor="start" x="1079" y="-3068.8" font-family="monospace" font-size="14.00" fill="#000000">_21 = &amp;_22</text>
<text text-anchor="start" x="1079" y="-3053.8" font-family="monospace" font-size="14.00" fill="#000000">(_17.0: &amp;&amp;str) = move _18</text>
<text text-anchor="start" x="1079" y="-3038.8" font-family="monospace" font-size="14.00" fill="#000000">(_17.1: &amp;u32) = move _19</text>
<text text-anchor="start" x="1079" y="-3023.8" font-family="monospace" font-size="14.00" fill="#000000">(_17.2: &amp;&amp;str) = move _20</text>
<text text-anchor="start" x="1079" y="-3008.8" font-family="monospace" font-size="14.00" fill="#000000">(_17.3: &amp;&amp;std::boxed::Box&lt;std::string::String&gt;) = move _21</text>
<text text-anchor="start" x="1079" y="-2993.8" font-family="monospace" font-size="14.00" fill="#000000">StorageDead(_21)</text>
<text text-anchor="start" x="1079" y="-2978.8" font-family="monospace" font-size="14.00" fill="#000000">StorageDead(_20)</text>
<text text-anchor="start" x="1079" y="-2963.8" font-family="monospace" font-size="14.00" fill="#000000">StorageDead(_19)</text>
<text text-anchor="start" x="1079" y="-2948.8" font-family="monospace" font-size="14.00" fill="#000000">StorageDead(_18)</text>
<text text-anchor="start" x="1079" y="-2933.8" font-family="monospace" font-size="14.00" fill="#000000">StorageLive(_23)</text>
<text text-anchor="start" x="1079" y="-2918.8" font-family="monospace" font-size="14.00" fill="#000000">_23 = (_17.0: &amp;&amp;str)</text>
<text text-anchor="start" x="1079" y="-2903.8" font-family="monospace" font-size="14.00" fill="#000000">StorageLive(_24)</text>
<text text-anchor="start" x="1079" y="-2888.8" font-family="monospace" font-size="14.00" fill="#000000">_24 = (_17.1: &amp;u32)</text>
<text text-anchor="start" x="1079" y="-2873.8" font-family="monospace" font-size="14.00" fill="#000000">StorageLive(_25)</text>
<text text-anchor="start" x="1079" y="-2858.8" font-family="monospace" font-size="14.00" fill="#000000">_25 = (_17.2: &amp;&amp;str)</text>
<text text-anchor="start" x="1079" y="-2843.8" font-family="monospace" font-size="14.00" fill="#000000">StorageLive(_26)</text>
<text text-anchor="start" x="1079" y="-2828.8" font-family="monospace" font-size="14.00" fill="#000000">_26 = (_17.3: &amp;&amp;std::boxed::Box&lt;std::string::String&gt;)</text>
<text text-anchor="start" x="1079" y="-2813.8" font-family="monospace" font-size="14.00" fill="#000000">StorageLive(_27)</text>
<text text-anchor="start" x="1079" y="-2798.8" font-family="monospace" font-size="14.00" fill="#000000">StorageLive(_28)</text>
<text text-anchor="start" x="1079" y="-2783.8" font-family="monospace" font-size="14.00" fill="#000000">_28 = _23</text>
<text text-anchor="start" x="1079" y="-2768.8" font-family="monospace" font-size="14.00" fill="#000000">StorageLive(_29)</text>
<text text-anchor="start" x="1079" y="-2753.8" font-family="monospace" font-size="14.00" fill="#000000">_29 = const &lt;&amp;str as std::fmt::Display&gt;::fmt as for&lt;&#39;r, &#39;s, &#39;t0&gt; fn(&amp;&#39;r &amp;str, &amp;&#39;s mut std::fmt::Formatter&lt;&#39;t0&gt;) &#45;&gt; std::result::Result&lt;(), std::fmt::Error&gt; (Pointer(ReifyFnPointer))</text>
<polygon fill="none" stroke="#000000" points="1076,-2726 1076,-2747 2576,-2747 2576,-2726 1076,-2726"/>
<text text-anchor="start" x="1079" y="-2732.8" font-family="monospace" font-size="14.00" fill="#000000">_27 = const std::fmt::ArgumentV1::new::&lt;&amp;str&gt;(move _28, move _29)</text>
</g>
<!-- bb2__0_3&#45;&gt;bb3__0_3 -->
<g id="edge2" class="edge">
<title>bb2__0_3&#45;&gt;bb3__0_3</title>
<path fill="none" stroke="#000000" d="M1826,-3638.7927C1826,-3627.5099 1826,-3613.9255 1826,-3598.5865"/>
<polygon fill="#000000" stroke="#000000" points="1829.5001,-3598.2596 1826,-3588.2597 1822.5001,-3598.2597 1829.5001,-3598.2596"/>
<text text-anchor="middle" x="1851" y="-3609.8" font-family="monospace" font-size="14.00" fill="#000000">return</text>
</g>
<!-- bb4__0_3 -->
<g id="node5" class="node">
<title>bb4__0_3</title>
<polygon fill="#c0c0c0" stroke="transparent" points="696,-2645.5 696,-2666.5 2179,-2666.5 2179,-2645.5 696,-2645.5"/>
<polygon fill="none" stroke="#000000" points="696,-2645.5 696,-2666.5 2179,-2666.5 2179,-2645.5 696,-2645.5"/>
<text text-anchor="start" x="1433" y="-2652.3" font-family="monospace" font-size="14.00" fill="#000000">4</text>
<polygon fill="none" stroke="#000000" points="696,-2534.5 696,-2645.5 2179,-2645.5 2179,-2534.5 696,-2534.5"/>
<text text-anchor="start" x="699" y="-2631.3" font-family="monospace" font-size="14.00" fill="#000000">StorageDead(_29)</text>
<text text-anchor="start" x="699" y="-2616.3" font-family="monospace" font-size="14.00" fill="#000000">StorageDead(_28)</text>
<text text-anchor="start" x="699" y="-2601.3" font-family="monospace" font-size="14.00" fill="#000000">StorageLive(_30)</text>
<text text-anchor="start" x="699" y="-2586.3" font-family="monospace" font-size="14.00" fill="#000000">StorageLive(_31)</text>
<text text-anchor="start" x="699" y="-2571.3" font-family="monospace" font-size="14.00" fill="#000000">_31 = _24</text>
<text text-anchor="start" x="699" y="-2556.3" font-family="monospace" font-size="14.00" fill="#000000">StorageLive(_32)</text>
<text text-anchor="start" x="699" y="-2541.3" font-family="monospace" font-size="14.00" fill="#000000">_32 = const &lt;u32 as std::fmt::Display&gt;::fmt as for&lt;&#39;r, &#39;s, &#39;t0&gt; fn(&amp;&#39;r u32, &amp;&#39;s mut std::fmt::Formatter&lt;&#39;t0&gt;) &#45;&gt; std::result::Result&lt;(), std::fmt::Error&gt; (Pointer(ReifyFnPointer))</text>
<polygon fill="none" stroke="#000000" points="696,-2513.5 696,-2534.5 2179,-2534.5 2179,-2513.5 696,-2513.5"/>
<text text-anchor="start" x="699" y="-2520.3" font-family="monospace" font-size="14.00" fill="#000000">_30 = const std::fmt::ArgumentV1::new::&lt;u32&gt;(move _31, move _32)</text>
</g>
<!-- bb3__0_3&#45;&gt;bb4__0_3 -->
<g id="edge3" class="edge">
<title>bb3__0_3&#45;&gt;bb4__0_3</title>
<path fill="none" stroke="#000000" d="M1527.4671,-2721.782C1517.1487,-2706.8083 1507.3837,-2692.6378 1498.3549,-2679.5356"/>
<polygon fill="#000000" stroke="#000000" points="1501.0858,-2677.3303 1492.5295,-2671.0821 1495.3218,-2681.3023 1501.0858,-2677.3303"/>
<text text-anchor="middle" x="1536" y="-2692.8" font-family="monospace" font-size="14.00" fill="#000000">return</text>
</g>
<!-- bb5__0_3 -->
<g id="node6" class="node">
<title>bb5__0_3</title>
<polygon fill="#c0c0c0" stroke="transparent" points="2003,-1328 2003,-1349 2076,-1349 2076,-1328 2003,-1328"/>
<polygon fill="none" stroke="#000000" points="2003,-1328 2003,-1349 2076,-1349 2076,-1328 2003,-1328"/>
<text text-anchor="start" x="2035" y="-1334.8" font-family="monospace" font-size="14.00" fill="#000000">5</text>
<polygon fill="none" stroke="#000000" points="2003,-1307 2003,-1328 2076,-1328 2076,-1307 2003,-1307"/>
<text text-anchor="start" x="2006" y="-1313.8" font-family="monospace" font-size="14.00" fill="#000000">drop(_7)</text>
</g>
<!-- bb3__0_3&#45;&gt;bb5__0_3 -->
<g id="edge4" class="edge">
<title>bb3__0_3&#45;&gt;bb5__0_3</title>
<path fill="none" stroke="#000000" d="M2192.1186,-2721.6726C2206.5413,-2679.3838 2215,-2635.4298 2215,-2590.5 2215,-2590.5 2215,-2590.5 2215,-1532.5 2215,-1455.9592 2143.2942,-1393.8122 2091.4213,-1358.8683"/>
<polygon fill="#000000" stroke="#000000" points="2093.2333,-1355.8707 2082.9582,-1353.2874 2089.3797,-1361.7145 2093.2333,-1355.8707"/>
<text text-anchor="middle" x="2240" y="-2162.8" font-family="monospace" font-size="14.00" fill="#000000">unwind</text>
</g>
<!-- bb4__0_3&#45;&gt;bb5__0_3 -->
<g id="edge6" class="edge">
<title>bb4__0_3&#45;&gt;bb5__0_3</title>
<path fill="none" stroke="#000000" d="M2029.5929,-2509.9171C2074.5725,-2495.5025 2110.451,-2478.6539 2131,-2459 2157.566,-2433.5912 2150,-2415.2608 2150,-2378.5 2150,-2378.5 2150,-2378.5 2150,-1532.5 2150,-1465.181 2102.9635,-1398.8489 2070.1285,-1360.7455"/>
<polygon fill="#000000" stroke="#000000" points="2072.5931,-1358.2481 2063.3594,-1353.0529 2067.3379,-1362.8724 2072.5931,-1358.2481"/>
<text text-anchor="middle" x="2175" y="-2056.8" font-family="monospace" font-size="14.00" fill="#000000">unwind</text>
</g>
<!-- bb6__0_3 -->
<g id="node7" class="node">
<title>bb6__0_3</title>
<polygon fill="#c0c0c0" stroke="transparent" points="614,-2433.5 614,-2454.5 2114,-2454.5 2114,-2433.5 614,-2433.5"/>
<polygon fill="none" stroke="#000000" points="614,-2433.5 614,-2454.5 2114,-2454.5 2114,-2433.5 614,-2433.5"/>
<text text-anchor="start" x="1359.5" y="-2440.3" font-family="monospace" font-size="14.00" fill="#000000">6</text>
<polygon fill="none" stroke="#000000" points="614,-2322.5 614,-2433.5 2114,-2433.5 2114,-2322.5 614,-2322.5"/>
<text text-anchor="start" x="617" y="-2419.3" font-family="monospace" font-size="14.00" fill="#000000">StorageDead(_32)</text>
<text text-anchor="start" x="617" y="-2404.3" font-family="monospace" font-size="14.00" fill="#000000">StorageDead(_31)</text>
<text text-anchor="start" x="617" y="-2389.3" font-family="monospace" font-size="14.00" fill="#000000">StorageLive(_33)</text>
<text text-anchor="start" x="617" y="-2374.3" font-family="monospace" font-size="14.00" fill="#000000">StorageLive(_34)</text>
<text text-anchor="start" x="617" y="-2359.3" font-family="monospace" font-size="14.00" fill="#000000">_34 = _25</text>
<text text-anchor="start" x="617" y="-2344.3" font-family="monospace" font-size="14.00" fill="#000000">StorageLive(_35)</text>
<text text-anchor="start" x="617" y="-2329.3" font-family="monospace" font-size="14.00" fill="#000000">_35 = const &lt;&amp;str as std::fmt::Display&gt;::fmt as for&lt;&#39;r, &#39;s, &#39;t0&gt; fn(&amp;&#39;r &amp;str, &amp;&#39;s mut std::fmt::Formatter&lt;&#39;t0&gt;) &#45;&gt; std::result::Result&lt;(), std::fmt::Error&gt; (Pointer(ReifyFnPointer))</text>
<polygon fill="none" stroke="#000000" points="614,-2301.5 614,-2322.5 2114,-2322.5 2114,-2301.5 614,-2301.5"/>
<text text-anchor="start" x="617" y="-2308.3" font-family="monospace" font-size="14.00" fill="#000000">_33 = const std::fmt::ArgumentV1::new::&lt;&amp;str&gt;(move _34, move _35)</text>
</g>
<!-- bb4__0_3&#45;&gt;bb6__0_3 -->
<g id="edge5" class="edge">
<title>bb4__0_3&#45;&gt;bb6__0_3</title>
<path fill="none" stroke="#000000" d="M1409.1936,-2509.7471C1404.5895,-2496.3765 1399.7895,-2482.4367 1395.1104,-2468.8479"/>
<polygon fill="#000000" stroke="#000000" points="1398.2943,-2467.344 1391.7291,-2459.0284 1391.6756,-2469.6231 1398.2943,-2467.344"/>
<text text-anchor="middle" x="1428" y="-2480.8" font-family="monospace" font-size="14.00" fill="#000000">return</text>
</g>
<!-- bb5__0_3&#45;&gt;bb1__0_3 -->
<g id="edge7" class="edge">
<title>bb5__0_3&#45;&gt;bb1__0_3</title>
<path fill="none" stroke="#000000" d="M2039,-1302.8206C2039,-1263.7265 2039,-1188.3064 2039,-1143.7971"/>
<polygon fill="#000000" stroke="#000000" points="2042.5001,-1143.7229 2039,-1133.7229 2035.5001,-1143.723 2042.5001,-1143.7229"/>
<text text-anchor="middle" x="2064" y="-1195.8" font-family="monospace" font-size="14.00" fill="#000000">return</text>
</g>
<!-- bb6__0_3&#45;&gt;bb5__0_3 -->
<g id="edge9" class="edge">
<title>bb6__0_3&#45;&gt;bb5__0_3</title>
<path fill="none" stroke="#000000" d="M1951.6163,-2297.9015C1996.6074,-2283.4815 2032.4969,-2266.6361 2053,-2247 2079.5491,-2221.5736 2072,-2203.2608 2072,-2166.5 2072,-2166.5 2072,-2166.5 2072,-1532.5 2072,-1472.4545 2057.9625,-1403.7437 2048.1983,-1363.2129"/>
<polygon fill="#000000" stroke="#000000" points="2051.5456,-1362.1675 2045.7577,-1353.2933 2044.7483,-1363.84 2051.5456,-1362.1675"/>
<text text-anchor="middle" x="2097" y="-1830.8" font-family="monospace" font-size="14.00" fill="#000000">unwind</text>
</g>
<!-- bb7__0_3 -->
<g id="node8" class="node">
<title>bb7__0_3</title>
<polygon fill="#c0c0c0" stroke="transparent" points="8,-2221.5 8,-2242.5 2036,-2242.5 2036,-2221.5 8,-2221.5"/>
<polygon fill="none" stroke="#000000" points="8,-2221.5 8,-2242.5 2036,-2242.5 2036,-2221.5 8,-2221.5"/>
<text text-anchor="start" x="1017.5" y="-2228.3" font-family="monospace" font-size="14.00" fill="#000000">7</text>
<polygon fill="none" stroke="#000000" points="8,-2110.5 8,-2221.5 2036,-2221.5 2036,-2110.5 8,-2110.5"/>
<text text-anchor="start" x="11" y="-2207.3" font-family="monospace" font-size="14.00" fill="#000000">StorageDead(_35)</text>
<text text-anchor="start" x="11" y="-2192.3" font-family="monospace" font-size="14.00" fill="#000000">StorageDead(_34)</text>
<text text-anchor="start" x="11" y="-2177.3" font-family="monospace" font-size="14.00" fill="#000000">StorageLive(_36)</text>
<text text-anchor="start" x="11" y="-2162.3" font-family="monospace" font-size="14.00" fill="#000000">StorageLive(_37)</text>
<text text-anchor="start" x="11" y="-2147.3" font-family="monospace" font-size="14.00" fill="#000000">_37 = _26</text>
<text text-anchor="start" x="11" y="-2132.3" font-family="monospace" font-size="14.00" fill="#000000">StorageLive(_38)</text>
<text text-anchor="start" x="11" y="-2117.3" font-family="monospace" font-size="14.00" fill="#000000">_38 = const &lt;&amp;std::boxed::Box&lt;std::string::String&gt; as std::fmt::Debug&gt;::fmt as for&lt;&#39;r, &#39;s, &#39;t0&gt; fn(&amp;&#39;r &amp;std::boxed::Box&lt;std::string::String&gt;, &amp;&#39;s mut std::fmt::Formatter&lt;&#39;t0&gt;) &#45;&gt; std::result::Result&lt;(), std::fmt::Error&gt; (Pointer(ReifyFnPointer))</text>
<polygon fill="none" stroke="#000000" points="8,-2089.5 8,-2110.5 2036,-2110.5 2036,-2089.5 8,-2089.5"/>
<text text-anchor="start" x="11" y="-2096.3" font-family="monospace" font-size="14.00" fill="#000000">_36 = const std::fmt::ArgumentV1::new::&lt;&amp;std::boxed::Box&lt;std::string::String&gt;&gt;(move _37, move _38)</text>
</g>
<!-- bb6__0_3&#45;&gt;bb7__0_3 -->
<g id="edge8" class="edge">
<title>bb6__0_3&#45;&gt;bb7__0_3</title>
<path fill="none" stroke="#000000" d="M1233.7288,-2297.7471C1209.7509,-2282.8836 1184.6386,-2267.3169 1160.4306,-2252.3108"/>
<polygon fill="#000000" stroke="#000000" points="1162.2525,-2249.3223 1151.909,-2247.0284 1158.5644,-2255.2719 1162.2525,-2249.3223"/>
<text text-anchor="middle" x="1229" y="-2268.8" font-family="monospace" font-size="14.00" fill="#000000">return</text>
</g>
<!-- bb7__0_3&#45;&gt;bb5__0_3 -->
<g id="edge11" class="edge">
<title>bb7__0_3&#45;&gt;bb5__0_3</title>
<path fill="none" stroke="#000000" d="M1824.8803,-2085.9916C1909.3467,-2070.7328 1970.9557,-2053.6376 1988,-2035 2118.3111,-1892.5074 1992.6538,-1793.4828 2008,-1601 2014.8274,-1515.3667 2027.3905,-1415.1111 2034.2405,-1363.1858"/>
<polygon fill="#000000" stroke="#000000" points="2037.7246,-1363.5363 2035.5712,-1353.1627 2030.7855,-1362.615 2037.7246,-1363.5363"/>
<text text-anchor="middle" x="2033" y="-1604.8" font-family="monospace" font-size="14.00" fill="#000000">unwind</text>
</g>
<!-- bb8__0_3 -->
<g id="node9" class="node">
<title>bb8__0_3</title>
<polygon fill="#c0c0c0" stroke="transparent" points="1321,-2009.5 1321,-2030.5 1971,-2030.5 1971,-2009.5 1321,-2009.5"/>
<polygon fill="none" stroke="#000000" points="1321,-2009.5 1321,-2030.5 1971,-2030.5 1971,-2009.5 1321,-2009.5"/>
<text text-anchor="start" x="1641.5" y="-2016.3" font-family="monospace" font-size="14.00" fill="#000000">8</text>
<polygon fill="none" stroke="#000000" points="1321,-1658.5 1321,-2009.5 1971,-2009.5 1971,-1658.5 1321,-1658.5"/>
<text text-anchor="start" x="1324" y="-1995.3" font-family="monospace" font-size="14.00" fill="#000000">StorageDead(_38)</text>
<text text-anchor="start" x="1324" y="-1980.3" font-family="monospace" font-size="14.00" fill="#000000">StorageDead(_37)</text>
<text text-anchor="start" x="1324" y="-1965.3" font-family="monospace" font-size="14.00" fill="#000000">_16 = [move _27, move _30, move _33, move _36]</text>
<text text-anchor="start" x="1324" y="-1950.3" font-family="monospace" font-size="14.00" fill="#000000">StorageDead(_36)</text>
<text text-anchor="start" x="1324" y="-1935.3" font-family="monospace" font-size="14.00" fill="#000000">StorageDead(_33)</text>
<text text-anchor="start" x="1324" y="-1920.3" font-family="monospace" font-size="14.00" fill="#000000">StorageDead(_30)</text>
<text text-anchor="start" x="1324" y="-1905.3" font-family="monospace" font-size="14.00" fill="#000000">StorageDead(_27)</text>
<text text-anchor="start" x="1324" y="-1890.3" font-family="monospace" font-size="14.00" fill="#000000">StorageDead(_26)</text>
<text text-anchor="start" x="1324" y="-1875.3" font-family="monospace" font-size="14.00" fill="#000000">StorageDead(_25)</text>
<text text-anchor="start" x="1324" y="-1860.3" font-family="monospace" font-size="14.00" fill="#000000">StorageDead(_24)</text>
<text text-anchor="start" x="1324" y="-1845.3" font-family="monospace" font-size="14.00" fill="#000000">StorageDead(_23)</text>
<text text-anchor="start" x="1324" y="-1830.3" font-family="monospace" font-size="14.00" fill="#000000">_15 = &amp;_16</text>
<text text-anchor="start" x="1324" y="-1815.3" font-family="monospace" font-size="14.00" fill="#000000">_14 = _15</text>
<text text-anchor="start" x="1324" y="-1800.3" font-family="monospace" font-size="14.00" fill="#000000">_13 = move _14 as &amp;[std::fmt::ArgumentV1] (Pointer(Unsize))</text>
<text text-anchor="start" x="1324" y="-1785.3" font-family="monospace" font-size="14.00" fill="#000000">StorageDead(_14)</text>
<text text-anchor="start" x="1324" y="-1770.3" font-family="monospace" font-size="14.00" fill="#000000">StorageLive(_39)</text>
<text text-anchor="start" x="1324" y="-1755.3" font-family="monospace" font-size="14.00" fill="#000000">StorageLive(_40)</text>
<text text-anchor="start" x="1324" y="-1740.3" font-family="monospace" font-size="14.00" fill="#000000">StorageLive(_41)</text>
<text text-anchor="start" x="1324" y="-1725.3" font-family="monospace" font-size="14.00" fill="#000000">_50 = const main::promoted[1]</text>
<text text-anchor="start" x="1324" y="-1710.3" font-family="monospace" font-size="14.00" fill="#000000">_41 = _50</text>
<text text-anchor="start" x="1324" y="-1695.3" font-family="monospace" font-size="14.00" fill="#000000">_40 = _41</text>
<text text-anchor="start" x="1324" y="-1680.3" font-family="monospace" font-size="14.00" fill="#000000">_39 = move _40 as &amp;[std::fmt::rt::v1::Argument] (Pointer(Unsize))</text>
<text text-anchor="start" x="1324" y="-1665.3" font-family="monospace" font-size="14.00" fill="#000000">StorageDead(_40)</text>
<polygon fill="none" stroke="#000000" points="1321,-1637.5 1321,-1658.5 1971,-1658.5 1971,-1637.5 1321,-1637.5"/>
<text text-anchor="start" x="1324" y="-1644.3" font-family="monospace" font-size="14.00" fill="#000000">_9 = const std::fmt::Arguments::new_v1_formatted(move _10, move _13, move _39)</text>
</g>
<!-- bb7__0_3&#45;&gt;bb8__0_3 -->
<g id="edge10" class="edge">
<title>bb7__0_3&#45;&gt;bb8__0_3</title>
<path fill="none" stroke="#000000" d="M1173.4512,-2085.9202C1213.4393,-2064.6445 1258.2639,-2040.7955 1303.9559,-2016.485"/>
<polygon fill="#000000" stroke="#000000" points="1305.6158,-2019.5665 1312.8001,-2011.7795 1302.3278,-2013.3867 1305.6158,-2019.5665"/>
<text text-anchor="middle" x="1249" y="-2056.8" font-family="monospace" font-size="14.00" fill="#000000">return</text>
</g>
<!-- bb8__0_3&#45;&gt;bb5__0_3 -->
<g id="edge13" class="edge">
<title>bb8__0_3&#45;&gt;bb5__0_3</title>
<path fill="none" stroke="#000000" d="M1828.3038,-1633.7358C1842.3568,-1616.806 1856.0854,-1599.754 1869,-1583 1927.5608,-1507.0297 1987.9491,-1411.5988 2018.5495,-1361.7914"/>
<polygon fill="#000000" stroke="#000000" points="2021.6727,-1363.3932 2023.9095,-1353.0372 2015.7028,-1359.738 2021.6727,-1363.3932"/>
<text text-anchor="middle" x="1964" y="-1528.8" font-family="monospace" font-size="14.00" fill="#000000">unwind</text>
</g>
<!-- bb9__0_3 -->
<g id="node10" class="node">
<title>bb9__0_3</title>
<polygon fill="#c0c0c0" stroke="transparent" points="1548,-1557.5 1548,-1578.5 1852,-1578.5 1852,-1557.5 1548,-1557.5"/>
<polygon fill="none" stroke="#000000" points="1548,-1557.5 1548,-1578.5 1852,-1578.5 1852,-1557.5 1548,-1557.5"/>
<text text-anchor="start" x="1695.5" y="-1564.3" font-family="monospace" font-size="14.00" fill="#000000">9</text>
<polygon fill="none" stroke="#000000" points="1548,-1506.5 1548,-1557.5 1852,-1557.5 1852,-1506.5 1548,-1506.5"/>
<text text-anchor="start" x="1551" y="-1543.3" font-family="monospace" font-size="14.00" fill="#000000">StorageDead(_39)</text>
<text text-anchor="start" x="1551" y="-1528.3" font-family="monospace" font-size="14.00" fill="#000000">StorageDead(_13)</text>
<text text-anchor="start" x="1551" y="-1513.3" font-family="monospace" font-size="14.00" fill="#000000">StorageDead(_10)</text>
<polygon fill="none" stroke="#000000" points="1548,-1485.5 1548,-1506.5 1852,-1506.5 1852,-1485.5 1548,-1485.5"/>
<text text-anchor="start" x="1551" y="-1492.3" font-family="monospace" font-size="14.00" fill="#000000">_8 = const std::io::_eprint(move _9)</text>
</g>
<!-- bb8__0_3&#45;&gt;bb9__0_3 -->
<g id="edge12" class="edge">
<title>bb8__0_3&#45;&gt;bb9__0_3</title>
<path fill="none" stroke="#000000" d="M1681.8686,-1633.9018C1684.4406,-1619.5176 1686.8918,-1605.8089 1689.1135,-1593.3839"/>
<polygon fill="#000000" stroke="#000000" points="1692.6084,-1593.7221 1690.9233,-1583.2622 1685.7177,-1592.49 1692.6084,-1593.7221"/>
<text text-anchor="middle" x="1711" y="-1604.8" font-family="monospace" font-size="14.00" fill="#000000">return</text>
</g>
<!-- bb9__0_3&#45;&gt;bb5__0_3 -->
<g id="edge15" class="edge">
<title>bb9__0_3&#45;&gt;bb5__0_3</title>
<path fill="none" stroke="#000000" d="M1783.7978,-1481.9494C1848.0603,-1443.1834 1934.6263,-1390.9629 1988.607,-1358.3993"/>
<polygon fill="#000000" stroke="#000000" points="1990.5551,-1361.3117 1997.3099,-1353.1493 1986.9393,-1355.3178 1990.5551,-1361.3117"/>
<text text-anchor="middle" x="1854" y="-1452.8" font-family="monospace" font-size="14.00" fill="#000000">unwind</text>
</g>
<!-- bb10__0_3 -->
<g id="node11" class="node">
<title>bb10__0_3</title>
<polygon fill="#c0c0c0" stroke="transparent" points="1631,-1406 1631,-1427 1770,-1427 1770,-1406 1631,-1406"/>
<polygon fill="none" stroke="#000000" points="1631,-1406 1631,-1427 1770,-1427 1770,-1406 1631,-1406"/>
<text text-anchor="start" x="1692" y="-1412.8" font-family="monospace" font-size="14.00" fill="#000000">10</text>
<polygon fill="none" stroke="#000000" points="1631,-1250 1631,-1406 1770,-1406 1770,-1250 1631,-1250"/>
<text text-anchor="start" x="1634" y="-1391.8" font-family="monospace" font-size="14.00" fill="#000000">StorageDead(_9)</text>
<text text-anchor="start" x="1634" y="-1376.8" font-family="monospace" font-size="14.00" fill="#000000">StorageDead(_41)</text>
<text text-anchor="start" x="1634" y="-1361.8" font-family="monospace" font-size="14.00" fill="#000000">StorageDead(_22)</text>
<text text-anchor="start" x="1634" y="-1346.8" font-family="monospace" font-size="14.00" fill="#000000">StorageDead(_17)</text>
<text text-anchor="start" x="1634" y="-1331.8" font-family="monospace" font-size="14.00" fill="#000000">StorageDead(_16)</text>
<text text-anchor="start" x="1634" y="-1316.8" font-family="monospace" font-size="14.00" fill="#000000">StorageDead(_15)</text>
<text text-anchor="start" x="1634" y="-1301.8" font-family="monospace" font-size="14.00" fill="#000000">StorageDead(_12)</text>
<text text-anchor="start" x="1634" y="-1286.8" font-family="monospace" font-size="14.00" fill="#000000">StorageDead(_8)</text>
<text text-anchor="start" x="1634" y="-1271.8" font-family="monospace" font-size="14.00" fill="#000000">_6 = move _7</text>
<text text-anchor="start" x="1634" y="-1256.8" font-family="monospace" font-size="14.00" fill="#000000">StorageDead(_7)</text>
<polygon fill="none" stroke="#000000" points="1631,-1229 1631,-1250 1770,-1250 1770,-1229 1631,-1229"/>
<text text-anchor="start" x="1634" y="-1235.8" font-family="monospace" font-size="14.00" fill="#000000">drop(_6)</text>
</g>
<!-- bb9__0_3&#45;&gt;bb10__0_3 -->
<g id="edge14" class="edge">
<title>bb9__0_3&#45;&gt;bb10__0_3</title>
<path fill="none" stroke="#000000" d="M1700,-1481.9494C1700,-1469.4813 1700,-1455.6213 1700,-1441.4713"/>
<polygon fill="#000000" stroke="#000000" points="1703.5001,-1441.1323 1700,-1431.1323 1696.5001,-1441.1323 1703.5001,-1441.1323"/>
<text text-anchor="middle" x="1725" y="-1452.8" font-family="monospace" font-size="14.00" fill="#000000">return</text>
</g>
<!-- bb11__0_3 -->
<g id="node12" class="node">
<title>bb11__0_3</title>
<polygon fill="#c0c0c0" stroke="transparent" points="1511,-1148.5 1511,-1169.5 1889,-1169.5 1889,-1148.5 1511,-1148.5"/>
<polygon fill="none" stroke="#000000" points="1511,-1148.5 1511,-1169.5 1889,-1169.5 1889,-1148.5 1511,-1148.5"/>
<text text-anchor="start" x="1691.5" y="-1155.3" font-family="monospace" font-size="14.00" fill="#000000">11</text>
<polygon fill="none" stroke="#000000" points="1511,-1067.5 1511,-1148.5 1889,-1148.5 1889,-1067.5 1511,-1067.5"/>
<text text-anchor="start" x="1514" y="-1134.3" font-family="monospace" font-size="14.00" fill="#000000">StorageDead(_6)</text>
<text text-anchor="start" x="1514" y="-1119.3" font-family="monospace" font-size="14.00" fill="#000000">StorageDead(_2)</text>
<text text-anchor="start" x="1514" y="-1104.3" font-family="monospace" font-size="14.00" fill="#000000">StorageLive(_42)</text>
<text text-anchor="start" x="1514" y="-1089.3" font-family="monospace" font-size="14.00" fill="#000000">_49 = const main::promoted[0]</text>
<text text-anchor="start" x="1514" y="-1074.3" font-family="monospace" font-size="14.00" fill="#000000">_42 = _49</text>
<polygon fill="none" stroke="#000000" points="1511,-1046.5 1511,-1067.5 1889,-1067.5 1889,-1046.5 1511,-1046.5"/>
<text text-anchor="start" x="1514" y="-1053.3" font-family="monospace" font-size="14.00" fill="#000000">const std::rt::begin_panic::&lt;&amp;&amp;str&gt;(move _42)</text>
</g>
<!-- bb10__0_3&#45;&gt;bb11__0_3 -->
<g id="edge16" class="edge">
<title>bb10__0_3&#45;&gt;bb11__0_3</title>
<path fill="none" stroke="#000000" d="M1700,-1224.9984C1700,-1211.3754 1700,-1197.6132 1700,-1184.5556"/>
<polygon fill="#000000" stroke="#000000" points="1703.5001,-1184.2509 1700,-1174.2509 1696.5001,-1184.251 1703.5001,-1184.2509"/>
<text text-anchor="middle" x="1725" y="-1195.8" font-family="monospace" font-size="14.00" fill="#000000">return</text>
</g>
</g>
</svg>
